<svg width="1744" height="1723" viewBox="0 0 1744 1723" fill="none" xmlns="http://www.w3.org/2000/svg">
<path d="M1084.91 1074.72C985.843 1371.63 721.203 1463.32 581.27 1094.54C562.027 1043.83 612.342 1024.95 647.529 1002.63C671.631 987.348 684.292 974.093 682.823 960.426C675.896 895.951 645.902 716.572 645.902 716.572L642.852 710.793C642.852 710.793 643.583 709.173 640.712 712.038C637.719 715.025 630.818 746.214 603.621 746.214C579.237 746.214 554.482 735.314 542.636 659.886C538.348 632.589 540.781 561.025 570.989 548.102C583.471 542.763 594.987 540.854 606.221 547.263C617.456 553.671 593.26 525.357 718.208 421.232C799.426 353.549 927.717 343.629 979.483 355.057C1031.25 366.484 1083.02 391.824 1105.91 445.483C1133.69 510.593 1080.03 559.759 1091.82 708.042C1089.67 761.617 1092.74 879.198 945.313 918.607C917.313 926.093 926 967 968 977C1035 998 1084.96 1049.27 1084.96 1074.86" fill="white"/>
<path fill-rule="evenodd" clip-rule="evenodd" d="M1084.94 613.2L1085.1 611.806C1089.24 575.399 1093.26 540.118 1112.24 508.429C1118.7 512.85 1117.95 518.452 1115.93 523.643C1096.01 574.845 1097.84 628.04 1099.67 681.206C1099.83 685.863 1099.99 690.519 1100.14 695.174C1102.22 761.601 1085.65 821.988 1041.35 872.736C1025.98 890.348 1005.63 902.464 984.854 913.045C963.515 923.912 959.03 933.132 965.687 956.599C965.93 957.455 966.229 958.315 966.529 959.178C967.892 963.1 969.273 967.073 965.487 970.95C960.965 975.58 956.026 974.259 950.683 972.829C950.48 972.775 950.277 972.721 950.074 972.667C899.733 959.241 854.697 935.154 813.056 904.393C807.139 900.022 802.272 894.06 797.561 888.29L797.561 888.289L797.256 887.916C794.776 884.879 794.338 880.141 797.807 877.462C801.054 874.955 803.609 877.011 806.452 879.298C806.815 879.59 807.182 879.886 807.556 880.176C830.027 897.614 854.773 909.063 883.768 911.943C897.176 913.275 910.448 912.784 923.708 912.293H923.708H923.709C931.17 912.017 938.626 911.741 946.101 911.79C956.34 911.857 964.752 907.107 972.761 902.584C973.712 902.047 974.658 901.513 975.601 900.99C1003.45 885.545 1029.88 868.229 1047.84 840.331C1063.92 815.331 1073.67 788.1 1079.4 759.443C1086.65 723.27 1085.99 686.7 1085.32 649.621C1085.11 637.536 1084.89 625.397 1084.94 613.2ZM581.684 537.824C603.577 536.064 615.771 549.033 626.037 564.053C638.664 582.526 645.39 603.465 648.37 625.572C648.87 629.28 649.389 633.223 647.152 636.856C642.737 637.45 642.319 633.946 642.252 631.317C641.696 610.644 632.526 592.61 623.308 575.156C616.73 562.704 607.059 550.64 591.943 547.577C574.71 544.084 558.858 559.566 551.067 579.842C536.636 617.398 539.029 654.36 552.455 690.759C558.33 706.687 565.648 722.913 580.303 734.026C595.142 745.28 613.008 743.295 623.903 728.349C624.526 727.494 625.184 726.649 625.845 725.801L625.845 725.801L625.845 725.801C627.841 723.238 629.853 720.656 630.928 717.749C633.035 712.049 636.256 706.629 642.155 707.423C648.978 708.342 650.271 715.729 650.909 721.499C656.707 773.928 664.758 826.024 672.81 878.126L672.81 878.126C674.808 891.053 676.806 903.98 678.769 916.913C681.369 934.023 684.381 958.598 682.361 969.05C682.219 969.792 682.136 970.523 682.058 971.222C681.749 973.958 681.496 976.21 677.906 976.75C673.034 977.484 670.831 974.66 670.233 970.28C667.913 953.274 667.273 946.747 666.275 920.735C665.308 895.519 660.569 870.665 655.83 845.816L655.83 845.815C654.111 836.799 652.392 827.784 650.853 818.753C645.613 787.996 640.483 756.802 640.022 721.777C639.326 722.808 638.644 723.825 637.974 724.826C630.426 736.095 624.264 745.295 613.48 748.877C595.58 754.827 579.917 750.422 567.371 736.277C553.071 720.155 543.783 701.808 538.558 680.498C530.244 646.587 528.704 613.368 539.487 579.853C544.655 563.774 563.189 535.208 581.684 537.824ZM616.346 665.326C620.717 668.467 624.679 671.316 628.334 659.948C627.158 617.652 613.6 590.654 592.472 589.632C603.747 604.197 614.559 618.413 615.472 638.132C610.742 635.978 607.7 632.589 604.784 629.342C602.753 627.08 600.784 624.886 598.348 623.226C597.31 622.518 596.295 621.735 595.271 620.946C590.544 617.301 585.636 613.516 577.471 616.357C581.301 622.187 586.575 626.301 591.799 630.377C597.832 635.083 603.798 639.737 607.392 646.919C596.777 654.561 592.209 664.62 597.718 676.761C602.497 687.296 609.565 696 623.565 696.635C623.043 690.31 618.868 685.707 614.812 681.235C609.879 675.796 605.121 670.55 607.316 662.635C610.515 661.133 613.516 663.291 616.346 665.326Z" fill="black"/>
<path d="M1470.63 1610H261.292L269.911 1546.71C269.911 1546.71 192.243 1520.27 184.466 1504.95C176.689 1489.63 268.7 1290.76 281.319 1259.28C293.937 1227.81 378.142 1105.12 416.871 1085.22C455.6 1065.33 526.716 1031.88 563.865 1015.6C568.668 1013.5 571.13 1012.57 578.746 999.495C586.362 986.422 612.314 980.688 621.622 973.038C625.964 969.471 636.286 941.512 657.046 944.939C677.806 948.365 683.163 964.628 683.163 964.628C683.163 964.628 695.02 1063.75 871.315 1049.35C923.857 1045.06 1027.3 1010.39 1031.97 971.948C1034.21 953.542 1020.54 939.837 1020.54 939.837C1020.54 939.837 1073.53 931.034 1097.63 944.939C1121.73 958.843 1112.37 996.978 1112.37 996.978C1112.37 996.978 1195.73 1043.96 1222.52 1069.68C1268.04 1113.39 1362.05 1220.88 1402.87 1321.49C1426 1378.5 1480.66 1481.79 1488.78 1494.85C1496.9 1507.92 1461.78 1530.91 1461.78 1530.91L1470.63 1610Z" fill="white"/>
<path fill-rule="evenodd" clip-rule="evenodd" d="M1130.87 1015.67C1169.51 1037.88 1205.15 1065.2 1239.38 1095.05C1240.61 1096.13 1297.44 1148.2 1350.61 1238.29C1404.12 1328.99 1453.95 1457.7 1453.95 1457.7C1464.12 1484.41 1419.59 1514.77 1391.06 1531.18C1340.36 1560.33 1312.53 1582.96 1315.74 1582.33C1345.65 1576.44 1391.35 1553.08 1418.24 1537.33C1423.99 1533.96 1430.32 1531.84 1437 1529.6C1440.16 1528.54 1443.4 1527.45 1446.69 1526.2C1447.52 1529.37 1448.39 1532.5 1449.25 1535.6C1453.13 1549.65 1456.85 1563.11 1456.99 1577.57C1457 1578.79 1457.01 1580.02 1457.01 1581.25C1457.03 1590.26 1457.06 1599.36 1460.7 1608.99C1465.89 1610 1469.78 1610 1473.83 1608.93L1473.63 1607.02C1471.54 1586.85 1469.54 1567.6 1466.82 1548.49C1465.94 1542.31 1466.79 1538.18 1472.03 1536.43C1477.74 1534.51 1482.12 1530.46 1486.5 1526.41C1488.78 1524.31 1491.05 1522.21 1493.5 1520.41C1503.27 1513.26 1504.38 1503.6 1498.05 1494.38C1489.95 1482.6 1484.26 1469.52 1478.55 1456.4C1476.36 1451.37 1474.18 1446.34 1471.85 1441.38C1468.98 1435.26 1466.03 1428.96 1463.04 1422.54C1439.67 1372.57 1413.02 1315.56 1393.49 1281.65C1364.83 1231.89 1305.97 1132.48 1242 1078.09L1240.21 1076.57C1211.01 1051.74 1163.47 1011.31 1118.65 991.403C1118.65 988.532 1118.59 985.719 1118.52 982.954C1118.38 976.881 1118.24 971.034 1118.82 965.276C1119.89 954.388 1115.07 946.582 1108.36 941.318C1099.2 934.123 1089.22 928.629 1077.16 928.13C1062.46 927.52 1043.85 928.571 1024.78 929.647C1000.88 930.996 976.288 932.384 957.852 930.589C946.521 929.486 945.042 932.843 948.218 945.7C937.74 954.122 937.888 958.262 949.225 964.595C952.259 966.24 955.509 967.323 958.848 967.803C968.727 969.329 994.284 968.496 1007.9 968.052C1009.7 967.993 1011.3 967.941 1012.62 967.902C1013.16 967.884 1013.72 967.847 1014.28 967.81C1018.08 967.558 1022.17 967.287 1024.69 972.661C1019.47 980.511 1014.15 987.934 1007.03 993.816C970.896 1023.68 929.277 1035.42 885.792 1040.96C854.207 1044.98 822.875 1044.77 791.199 1038.96C758.483 1032.95 728.985 1020.86 703.522 996.628C702.182 995.352 699.344 993.292 695.894 990.787C686.8 984.183 673.445 974.486 671.997 967.902C698.648 943.7 648.712 924.179 629.684 951.134C622.1 961.875 613.383 972.528 599.682 976.607C588.939 979.805 577.622 985.329 572.393 998.925C571.649 1000.86 569.002 1002.18 566.992 1003.12C560.502 1006.18 554.027 1009.29 547.553 1012.39C530.261 1020.69 512.969 1028.99 495.368 1036.34C472.997 1045.68 451.516 1057.22 430.084 1068.73C429.251 1069.18 428.418 1069.62 427.585 1070.07C394.345 1087.92 366.278 1113.39 342.443 1145.7C308.035 1192.34 281.365 1244.02 257.968 1298.26C244.976 1328.39 231.474 1358.23 217.975 1388.07L216.043 1392.34C213.683 1397.56 211.264 1402.75 208.845 1407.95C197.093 1433.19 185.327 1458.47 180.072 1486.66C176.28 1507 175.65 1521.31 196.432 1535.59L196.495 1535.63C212.952 1546.94 229.232 1558.12 248.331 1562.35C257.152 1564.3 259.294 1570.24 257.893 1578.86C257.388 1581.96 256.839 1585.06 256.291 1588.15C254.997 1595.44 253.709 1602.71 253.015 1610H267.894C268.549 1594.36 272.041 1579.43 275.889 1562.97C277.069 1557.93 278.281 1552.74 279.456 1547.35C298.551 1556.75 317.967 1564.56 337.394 1572.38C364.499 1583.29 391.626 1594.2 417.935 1609.45C427.556 1610.07 437.203 1609.95 446.809 1609.08C446.707 1608.86 446.61 1608.64 446.515 1608.43C445.814 1606.87 445.29 1605.7 444.482 1605.34C430.967 1599.29 418.029 1591.9 405.08 1584.5C392.288 1577.19 379.485 1569.87 366.108 1563.85C356.335 1559.45 346.677 1554.7 337.018 1549.95C320.534 1541.85 304.047 1533.74 286.98 1527.36C278.028 1524.01 268.77 1521.74 259.505 1519.46C253.008 1517.86 246.508 1516.26 240.108 1514.3C227.425 1510.4 214.913 1505.68 202.537 1500.66C194.409 1497.37 191.361 1491.98 195.09 1481.09C201.199 1463.26 208.097 1445.86 215.419 1428.71C224.101 1408.38 233.265 1388.31 242.428 1368.24C245.959 1360.51 249.489 1352.78 252.992 1345.03C257.278 1335.56 261.587 1326.1 265.896 1316.63C274.041 1298.75 282.187 1280.86 290.172 1262.88C302.917 1234.19 319.159 1208.03 335.404 1181.86C335.976 1180.94 336.548 1180.02 337.12 1179.09C363.838 1136.04 397.915 1103.32 441.395 1083.41C454.685 1077.33 467.829 1070.85 480.975 1064.36C490.193 1059.82 499.411 1055.27 508.681 1050.86C512.041 1049.26 515.384 1047.58 518.73 1045.89C531.876 1039.26 545.074 1032.61 559.523 1031.05C582.184 1028.6 607.065 1031.47 616.576 1063.19C617.129 1065.03 618.239 1066.66 619.35 1068.29C619.871 1069.05 620.392 1069.82 620.856 1070.6C633.456 1091.99 652.046 1104.24 671.997 1115.18C706.708 1134.2 742.532 1143.34 780.996 1135.12C791.427 1132.89 794.916 1135.97 795.234 1147.87C795.291 1149.98 795.195 1152.1 795.1 1154.22C794.87 1159.32 794.641 1164.41 796.516 1169.35C805.308 1192.47 807.291 1215.19 793.785 1237.21C792.823 1238.78 792.227 1240.63 791.629 1242.48C791.311 1243.47 790.993 1244.45 790.619 1245.4C790.498 1245.7 790.372 1246.01 790.245 1246.32C788.916 1249.59 787.503 1253.06 790.643 1255.85C794.315 1259.11 797.663 1256.75 800.673 1253.69C814.375 1239.75 821.978 1200.95 814.396 1181.8C811.791 1175.19 810.328 1168.08 810.086 1160.85C809.757 1153.09 810.671 1148.6 819.11 1147.02C830.599 1144.87 840.282 1135.92 841.285 1123.02C842.525 1107.1 849.318 1107.52 859.523 1110.08C861.817 1124.75 864.895 1140.81 879.669 1143.31C891.195 1145.27 897.834 1152.56 904.963 1160.38C905.471 1160.93 905.98 1161.49 906.495 1162.05C908.603 1164.45 911.133 1166.32 913.921 1167.54C926.554 1172.52 933.189 1181.54 931.274 1197.35C930.995 1199.63 931.094 1201.97 931.193 1204.31C931.293 1206.69 931.394 1209.08 931.096 1211.4C928.209 1233.89 939.88 1245.95 952.04 1258.53C955.209 1261.8 958.412 1265.12 961.398 1268.65C967.08 1258.3 962.263 1251.97 957.429 1247.27C945.092 1235.27 941.404 1221.16 943.725 1202.98C946.023 1185 942.924 1167.97 926.628 1158.18C924.713 1157.02 922.838 1155.78 920.963 1154.54C918.314 1152.78 915.665 1151.02 912.905 1149.53C912.55 1149.34 912.186 1149.14 911.819 1148.95C908.223 1147.06 904.347 1145.03 905.579 1140.02C907.015 1134.18 911.305 1133.07 917.26 1133.69C936.449 1135.66 955.976 1135.2 974.342 1128.69C992.082 1122.4 1009.74 1115.94 1026.49 1105.46C1049.75 1090.9 1071.08 1075.22 1087.47 1050.95C1089.38 1048.12 1091.19 1045.17 1093.02 1042.21C1098.45 1033.37 1103.95 1024.45 1112.22 1018.3C1118.16 1013.88 1123.52 1011.44 1130.87 1015.67ZM603.943 995.11C604.581 994.947 605.22 994.784 605.854 994.613C616.989 993.031 620.804 986.82 625.327 979.455C627.04 976.666 628.855 973.711 631.208 970.779C632.74 968.872 634.232 966.371 635.821 963.709C639.623 957.339 643.975 950.047 650.726 947.764C663.841 943.329 669.979 956.922 664.824 960.371C650.837 969.73 690.157 1015.57 719.102 1030.13C778.522 1060.01 830.914 1062.15 888.835 1056.94C932.419 1053.02 974.385 1038.57 1010.86 1010.07C1025.85 998.361 1041.18 984.28 1037.52 958.573C1036.4 950.691 1042.12 948.521 1047.18 951.85C1058.49 959.297 1068.35 959.42 1079.56 950.722C1086.58 945.283 1091.42 950.305 1096.17 955.218C1098.06 957.176 1099.93 959.117 1101.92 960.371C1107.98 964.203 1106.49 971.481 1105.19 977.79C1105.1 978.192 1105.02 978.59 1104.94 978.983C1093.01 1038.24 1056.27 1073.88 1010.98 1098.89C987.942 1111.61 961.849 1116.86 936.011 1120.46C924.531 1122.06 918.647 1117.78 920.783 1103.05C927.84 1097.85 936.011 1095.69 944.266 1093.52C949.771 1092.07 955.313 1090.61 960.586 1088.23C974.409 1081.99 986.679 1073.02 998.947 1064.06C1003.29 1060.88 1007.64 1057.7 1012.05 1054.65C1015.24 1052.44 1018.54 1050.42 1021.83 1048.39C1029.04 1043.96 1036.26 1039.52 1042.4 1033.17C1043.36 1032.18 1044.36 1031.24 1045.36 1030.3C1046.97 1028.78 1048.58 1027.27 1050 1025.56C1052.89 1022.07 1055.76 1017.73 1052.4 1013.19C1049.2 1008.86 1046.75 1011.23 1044.27 1013.63C1043.54 1014.33 1042.81 1015.04 1042.06 1015.57C1036.41 1019.63 1030.78 1023.75 1025.15 1027.87C1003.67 1043.59 982.174 1059.32 959.057 1071.51C933.413 1085.03 905.043 1090.09 876.869 1091.76C849.88 1093.36 823.018 1092.12 795.989 1085.72C777.755 1081.4 759.194 1077.31 740.768 1073.43C725.924 1070.3 713.858 1059.74 701.989 1049.35C700.081 1047.68 698.178 1046.02 696.27 1044.39C695.416 1043.66 694.547 1042.8 693.665 1041.94C689.721 1038.06 685.523 1033.93 681.301 1039.66C676.788 1045.78 681.098 1049.99 685.23 1054.03C686.243 1055.02 687.245 1056 688.104 1056.99C711.73 1084.34 742.557 1090.55 773.399 1096.75C776.859 1097.45 780.319 1098.14 783.769 1098.87C784.767 1099.08 785.754 1099.34 786.747 1099.61C787.189 1099.73 787.632 1099.85 788.078 1099.97C783.493 1119.3 782.924 1119.34 766.956 1120.44L766.312 1120.48C736.037 1122.56 707.001 1117.5 679.939 1101.94C658.682 1089.72 638.351 1075.65 631.208 1047.24C625.985 1026.47 611.861 1017.13 595.44 1010.53C594.982 1010.35 594.506 1010.21 594.028 1010.08C592.314 1009.59 590.556 1009.09 589.35 1006.33C591.518 998.287 597.726 996.7 603.943 995.11Z" fill="black"/>
<path d="M497.684 351.622C530.884 329.322 562.64 306.682 586.556 275.129C601.133 255.897 613.146 234.446 629.356 216.783C662.12 181.083 698.796 150.028 743.226 128.638C783.111 109.438 825.25 103.206 868.601 98.8227C901.182 95.6023 934.049 96.8245 966.301 102.456C999.173 108.075 1022.81 121.471 1025.06 162.909C1025.59 172.784 1029.32 176.932 1039.1 176.092C1068.16 173.597 1094.58 183.252 1120.05 195.263C1147.06 208.001 1165.75 236.02 1144.91 274.029C1163.78 282.181 1181.66 292.439 1198.22 304.608C1223.99 323.294 1236.83 361.56 1223.57 389.279C1214.03 409.232 1193.87 416.104 1173.67 421.166C1155.55 425.71 1137.38 423.736 1118.71 420.141C1113.14 433.341 1109.67 447.083 1095.35 453.904C1076.74 462.774 1057.75 466.362 1037.31 463.204C1010.97 459.138 986.811 448.03 968.143 430.579C946.043 409.924 922.491 409.726 896.177 414.111C880.498 416.724 864.608 414.795 849.525 411.152C825.243 405.287 801.455 397.333 777.541 389.995C760.408 384.737 747.525 390.348 740.002 406.329C728.331 431.12 728.355 458.486 724.189 484.629C719.539 513.829 709.389 539.36 690.489 561.188C674.189 580.011 669.874 602.441 666.877 625.674C666.017 632.349 667.377 640.12 659.364 643.123C651.07 646.233 647.286 638.982 642.635 634.283C631.075 622.605 627.859 606.872 622.662 592.2C617.239 576.505 609.074 561.898 598.546 549.057C585.946 533.832 573.096 535.19 559.246 548.673C548.464 559.173 544.51 570.664 543.497 584.517C543.451 588.483 541.247 592.109 537.747 593.977C526.247 576.297 513.166 559.472 503.737 540.802C493.422 520.375 480.231 501.754 470.568 480.816C450.146 436.579 457.085 383.29 497.684 351.622Z" fill="black"/>
<path fill-rule="evenodd" clip-rule="evenodd" d="M932.422 803.197C909.38 800.529 885.199 797.729 866.078 817.807C862.031 821.278 859.582 826.257 859.303 831.582C841.108 827.027 827.366 800.427 835.613 784.927C842.237 772.479 855.398 770.348 868.143 768.598C897.104 764.62 924.723 773.586 946.823 788.736C960.049 797.804 970.494 797.391 982.857 796.902C983.703 796.869 984.558 796.835 985.423 796.804C985.687 796.795 985.951 796.785 986.215 796.775C993.169 796.513 1000.26 796.247 1004.49 803.897C1009.11 812.243 1008.71 820.482 1003.04 827.733C996.876 835.626 990.429 843.731 978.059 845.943C974.063 823.727 962.043 806.356 939.643 804.007C937.254 803.756 934.844 803.477 932.422 803.197ZM912.678 836.887C911.18 835.168 909.612 833.492 908.044 831.816C904.466 827.993 900.889 824.17 898.142 819.822C894.234 813.636 889.856 814.455 885.286 817.241C878.395 821.441 870.958 826.101 872.428 835.813C873.328 841.758 877.808 841.407 881.912 841.086C882.959 841.004 883.982 840.924 884.914 840.951C890.619 841.117 896.347 841.024 902.075 840.93C920.036 840.637 937.988 840.344 955.169 848.065C957.211 848.912 959.564 848.378 961.041 846.734C959.752 827.994 933.061 810.865 914.578 817.05C914.51 819.199 915.403 821.367 916.291 823.525C918.177 828.109 920.047 832.652 912.678 836.887Z" fill="white"/>
<path fill-rule="evenodd" clip-rule="evenodd" d="M820.135 787.033C822.99 765.221 852.019 754.792 874.812 754.474C906.296 754.035 935.766 763.603 962.468 780.649C967.411 784.003 973.557 785.069 979.341 783.575C998.651 779.349 1012.07 783.953 1017.45 795.4C1027.76 817.367 1016.95 839.244 1005.75 848.551C985.283 865.57 962.048 865.099 938.517 857.985C927.287 854.458 915.424 853.413 903.751 854.924C871.666 858.965 844.551 849.106 827.174 820.985C820.823 810.881 818.325 798.829 820.135 787.033ZM866.079 817.807C885.2 797.729 909.38 800.529 932.422 803.197C934.844 803.477 937.254 803.756 939.644 804.007C962.044 806.356 974.064 823.727 978.06 845.943C990.43 843.731 996.877 835.626 1003.04 827.733C1008.71 820.482 1009.11 812.243 1004.49 803.897C1000.26 796.247 993.169 796.513 986.215 796.775C985.951 796.785 985.687 796.795 985.424 796.804C984.558 796.835 983.704 796.869 982.858 796.902L982.858 796.902C970.494 797.391 960.049 797.804 946.824 788.736C924.724 773.586 897.105 764.62 868.144 768.598C855.399 770.348 842.238 772.479 835.614 784.927C827.367 800.427 841.109 827.027 859.304 831.582C859.582 826.257 862.031 821.278 866.079 817.807ZM912.678 836.887C911.18 835.168 909.612 833.492 908.044 831.816C904.466 827.993 900.889 824.17 898.143 819.822C894.235 813.636 889.857 814.455 885.287 817.241C878.396 821.441 870.959 826.101 872.429 835.813C873.328 841.758 877.808 841.407 881.912 841.086C882.959 841.004 883.982 840.924 884.915 840.951C890.619 841.117 896.347 841.024 902.075 840.93C920.036 840.637 937.988 840.344 955.17 848.065C957.211 848.912 959.565 848.378 961.042 846.734C959.753 827.994 933.062 810.865 914.579 817.05C914.511 819.199 915.403 821.367 916.291 823.525C918.177 828.109 920.047 832.652 912.678 836.887Z" fill="black"/>
<path d="M975.184 716.071C980.733 712.163 984.883 706.579 987.024 700.139C989.779 692.272 988.08 683.53 982.579 677.268C977.343 671.236 970.225 673.631 963.531 675.632C959.423 676.859 954.123 680.886 951.363 674.421C948.963 668.788 953.207 664.433 957.425 661.66C965.688 656.23 974.698 655.231 984.212 658.937C996.098 663.568 1000.62 673.413 1002.32 684.737C1008.97 728.966 971.373 739.107 941.585 737.237C939.453 737 937.414 736.234 935.654 735.007C932.284 732.775 926.98 731.16 928.454 725.886C930.132 719.886 935.201 720.895 940.091 721.865C952.114 724.249 963.554 722.061 975.184 716.071Z" fill="black"/>
<path fill-rule="evenodd" clip-rule="evenodd" d="M936.086 554.281L936.091 554.281C988.115 554.626 1039.33 554.965 1090.54 555.379C1095.22 555.534 1099.88 555.946 1104.51 556.613C1111.63 557.461 1114.91 560.8 1116.49 568.645C1122.72 599.494 1119.29 629.659 1110.22 659.034C1104.76 676.708 1090.23 687.104 1072.67 692.575C1049.74 699.719 1026.22 704.951 1002.87 696.475C982.13 688.945 965.693 676.48 960.014 652.539C959.303 649.544 958.415 646.608 957.53 643.683L957.53 643.683C955.016 635.372 952.533 627.162 954.257 618.009C954.996 614.085 951.195 612.147 948.208 610.625L948.178 610.609C933.188 602.963 918.478 610.418 915.77 627.087C912.8 645.375 906.77 662.896 896.409 677.877C879.865 701.791 854.759 707.261 827.4 704.024C805.853 701.474 787.236 692.436 771.2 677.436C756.85 664.014 749.583 647.894 751.124 628.641C752.024 617.435 745.703 612.341 737.424 610.931C723.108 608.491 709.839 603.084 696.64 597.707L696.64 597.707C691.89 595.772 687.15 593.84 682.373 592.052C675.182 589.361 667.875 587.068 660.573 584.776L660.573 584.776C652.535 582.254 644.505 579.733 636.643 576.686C636.288 576.549 635.935 576.417 635.588 576.286L635.587 576.286C631.77 574.856 628.566 573.655 629.191 567.821C634.893 565.16 640.131 566.868 645.555 568.636C649.145 569.807 652.817 571.004 656.759 570.979C654.074 561.998 648.481 558.606 639.498 558.208C628.724 557.73 619.098 554.031 611.968 545.033C616.742 540.381 620.995 540.713 625.149 541.84C646.516 547.638 668.347 550.926 690.183 554.215C708.177 556.925 726.175 559.636 743.922 563.752C754.208 566.137 765.261 566.18 774.962 557.33C781.178 551.658 790.446 551.846 798.931 552.018C799.981 552.04 801.018 552.061 802.037 552.07C827.29 552.306 852.539 552.861 878.239 553.425L878.239 553.425C888.89 553.659 899.618 553.895 910.456 554.11C919.023 554.167 927.565 554.224 936.086 554.281ZM760.356 619.971C763.719 661.682 787.103 682.956 823.136 690.965C846.709 696.205 875.409 691.103 889.946 664.185C898.129 649.032 902.768 633.045 906.959 616.601C910.83 601.408 921.194 596.555 942.6 598.34C956.894 599.532 963.476 606.184 965.4 620.805C966.843 631.764 968.476 642.705 970.421 653.589C972.877 667.337 989.854 683.913 1003.73 686.698C1025.07 691.112 1047.22 689.481 1067.68 681.99C1079.66 677.651 1090.59 671.619 1096.36 658.996C1106.44 636.947 1109.45 613.71 1109.14 589.78C1108.85 567.859 1107.52 566.38 1084.84 566.29C1070.75 566.234 1056.66 566.251 1042.56 566.267C1023.03 566.29 1003.49 566.313 983.955 566.142C958.981 565.925 934.008 565.604 909.035 565.283L909.035 565.283C879.978 564.909 850.922 564.536 821.864 564.325C818.382 564.3 814.788 563.963 811.177 563.623C800.435 562.615 789.534 561.591 780.937 568.725C771.995 576.143 763.102 576.12 753.534 576.095H753.533C752.385 576.092 751.227 576.089 750.058 576.099C747.558 576.12 745.094 575.606 742.603 575.087C738.399 574.209 734.118 573.316 729.458 574.953C730.779 589.769 734.15 602.719 751.399 606.178C757.747 607.448 761.123 611.009 760.352 619.971H760.356ZM684.546 566.56C693.391 565.411 701.56 564.35 704.44 577.114H704.436C705.954 581.856 707.095 584.844 708.497 588.515L708.515 588.562C695.509 585.793 685.342 580.841 680.387 567.051C681.778 566.92 683.17 566.739 684.546 566.56Z" fill="white"/>
<path fill-rule="evenodd" clip-rule="evenodd" d="M874.335 554.282C900.607 554.115 926.698 553.944 952.676 553.774C994.73 553.499 1036.49 553.226 1078.25 552.972C1080.31 552.96 1082.4 552.863 1084.5 552.766C1091.75 552.43 1099.08 552.091 1105.54 555.219C1115.65 560.112 1116.22 570.196 1116.76 579.555C1116.85 581.07 1116.93 582.567 1117.06 584.019C1119.26 609.574 1116.88 635.058 1107.97 659.125C1102.56 673.685 1090.75 684.946 1075.95 689.657C1052.48 697.474 1027.93 703.157 1003.92 694.535C985.216 687.823 969.491 675.89 961.872 655.478C960.668 652.255 959.232 649.141 957.797 646.032C954.379 638.627 950.973 631.245 950.757 622.458C950.643 617.839 945.057 614.397 939.125 614.388C932.088 614.376 928.383 618.857 925.517 624.26C923.133 628.756 922.019 633.63 920.895 638.55C920.063 642.196 919.224 645.866 917.859 649.427C903.659 686.491 879.138 704.719 839.759 703.927C814.125 703.413 792.108 693.617 773.051 676.527C758.151 663.171 751.816 646.513 752.22 626.873C752.272 624.334 752.259 621.793 752.245 619.036C752.238 617.694 752.231 616.3 752.231 614.83C731.462 610.097 711.97 602.281 692.559 594.498C674.156 587.12 655.827 579.771 636.556 575.106C633.297 574.317 631.142 573.115 629.779 570.206C625.878 561.894 620.238 554.708 613.185 545.724L613.185 545.724C612.262 544.548 611.315 543.342 610.345 542.098C616.875 543.236 623.111 544.347 629.15 545.422L629.15 545.422C641.979 547.708 653.916 549.834 665.891 551.718C675.747 553.269 685.564 555.085 695.38 556.901L695.38 556.901C715.499 560.622 735.618 564.344 756.083 565.782C762.712 566.247 768.574 566.133 774.299 559.916C780.546 553.133 790.637 553.583 799.217 553.967C800.215 554.011 801.193 554.055 802.142 554.086C825.817 554.875 849.438 555.147 874.335 554.282ZM706.068 591.706C708.897 593.178 711.308 592.801 711.308 589.251C711.308 570.429 696.753 560.213 677.196 565.758C681.174 579.864 691.773 586.348 706.068 591.706ZM722.135 595.291C720.145 593.843 719.114 591.075 716.468 583.964H716.473C712.992 577.914 711.489 573.389 712.846 566.077C719.96 572.18 722.108 579.642 724.208 586.936C725.224 590.466 726.23 593.956 727.781 597.234C725.064 596.601 723.405 596.214 722.135 595.291Z" fill="black"/>
<path d="M896.905 584.754C896.231 578.754 900.033 577.42 903.921 577.408C922.994 577.35 942.074 577.424 961.138 577.922C965.487 577.943 969.579 579.982 972.214 583.442C965.312 591.5 918.64 592.826 896.905 584.754Z" fill="black"/>
<path d="M802.905 603.471C802.077 603.171 803.935 603.533 802.822 603.871C796.191 605.854 853.512 656.692 858.574 652.379C861.505 649.875 809.053 606.053 802.905 603.471Z" fill="white"/>
<path d="M823.257 579.693C822.429 579.393 824.287 579.755 823.174 580.093C816.542 582.075 873.864 632.913 878.926 628.601C881.86 626.097 829.405 582.275 823.257 579.693Z" fill="white"/>
<path d="M998.219 603.471C997.39 603.171 999.249 603.533 998.136 603.871C991.504 605.854 1048.82 656.692 1053.89 652.379C1056.82 649.875 1004.37 606.053 998.219 603.471Z" fill="white"/>
<path d="M1018.57 579.693C1017.75 579.393 1019.6 579.755 1018.49 580.093C1011.86 582.075 1069.18 632.913 1074.24 628.601C1077.18 626.097 1024.73 582.275 1018.57 579.693Z" fill="white"/>
<path d="M830.766 547.895C840.317 537.34 852.602 531.682 862.421 522.89C867.043 518.752 871.891 520.129 875.843 524.529C879.638 528.756 883.124 532.829 878.543 539.006C867.694 553.656 852.243 561.87 835.827 567.266C821.427 571.999 805.966 573.537 790.951 576.361C786.535 577.192 780.776 579.569 779.501 572.685C778.274 566.059 782.664 562.685 788.96 561.474C803.15 558.747 817.438 556.289 830.766 547.895Z" fill="black"/>
<path d="M1063.86 546.023C1075.17 548.083 1081.9 557.045 1091.72 560.179C1095.47 561.373 1100.09 564.856 1098.3 569.724C1096.16 575.524 1090.21 573.989 1086.07 572.624C1072.85 568.245 1059.61 563.741 1046.87 558.16C1034.08 552.56 1021.8 545.76 1009.46 539.176C1003.53 536.013 997.943 531.352 1002.13 523.997C1006.26 516.749 1013.19 514.485 1020.44 520.303C1033.46 530.751 1049.04 536.789 1063.86 546.023Z" fill="black"/>
</svg>
